# xmcd
#
# Track frame offsets:
#	150
#	18207
#	33675
#	50969
#	68811
#	77505
#	96282
#	109105
#
# Disc length: 1739 seconds
# Revision: 0
# Processed by: cddbd v1.5.2PL0 Copyright (c) Steve Scherf et al.
# Submitted via: dBpowerAMP V12.0
#
DISCID=6506c908
DTITLE=Various Artist - Sugar Hill 2009 Bluegrass Radio Sampler
DYEAR=2009
DGENRE=Bluegrass
TTITLE0=Adam Steffey - One More For The Road
TTITLE1=Jeremy Garrett - Echoes Of Goodbye
TTITLE2=Bryan Sutton - Big Island Hornpipe
TTITLE3=Sam Bush - Circles Around Me
TTITLE4=Adam Steffey - Let Me Fall
TTITLE5=Sarah Jarosz - Tell Me True
TTITLE6=Chris Pandolfi - Looking Glass
TTITLE7=Sam Bush - The Ballad Of Stringbean And Estelle
EXTD=
EXTT0=
EXTT1=
EXTT2=
EXTT3=
EXTT4=
EXTT5=
EXTT6=
EXTT7=
PLAYORDER=
